<svg width="170" height="31" viewBox="0 0 170 31" fill="none" xmlns="http://www.w3.org/2000/svg">
<path d="M12.4656 2.8241C12.4223 2.8241 12.4006 2.8241 12.3789 2.8241C12.4006 2.8241 12.4439 2.8241 12.4656 2.8241C12.6174 2.86745 12.7474 2.88913 12.8775 2.93248C12.9208 2.93248 12.9425 2.93248 12.9859 2.93248C12.8341 2.88913 12.6607 2.84577 12.4656 2.8241Z" fill="url(#paint0_linear_2213_2)"/>
<path d="M12.4656 2.8241C12.4223 2.8241 12.4006 2.8241 12.3789 2.8241C12.4006 2.8241 12.4439 2.8241 12.4656 2.8241C12.6174 2.86745 12.7474 2.88913 12.8775 2.93248C12.9208 2.93248 12.9425 2.93248 12.9859 2.93248C12.8341 2.88913 12.6607 2.84577 12.4656 2.8241Z" fill="url(#paint1_linear_2213_2)"/>
<path d="M9.3658 25.3034L5.72402 25.3251H4.01152C4.01152 25.3251 3.33953 25.3685 3.38288 24.9349L3.36121 20.6211C3.36121 20.6211 3.40456 20.0575 4.09823 19.8191C8.93225 17.8465 13.3327 15.7871 13.3327 15.7871C13.3327 15.7871 13.3327 15.7871 13.3544 15.7654C12.6391 15.2018 11.6202 14.6382 11.1433 14.3998C10.9049 14.5082 10.6881 14.5949 10.4497 14.7033C8.65045 15.3969 2.53747 17.1961 2.53747 17.1961C2.53747 17.1961 0.00123749 18.0849 0.0229147 20.6645C0.0229147 20.968 0.0229147 26.1705 0.0229147 26.1705C0.0229147 26.1705 -0.107148 28.0998 2.68921 28.1865C2.77592 28.1431 10.6881 28.1865 10.6881 28.1865L13.9614 24.8482C12.1405 25.3901 11.2517 25.2817 9.3658 25.3034Z" fill="url(#paint2_linear_2213_2)"/>
<path d="M18.9904 7.39805V7.37637C18.9904 7.28966 18.9687 7.22463 18.947 7.13792C18.8386 6.46593 18.7519 6.24916 18.7086 6.11909C18.7086 6.09741 18.6869 6.07574 18.6869 6.05406C18.6869 6.03238 18.6652 6.03238 18.6652 6.01071C18.5785 5.83729 18.4918 5.68555 18.4918 5.68555L18.4701 5.66387C17.2345 3.40944 14.0697 2.86751 12.2921 2.75912L11.3167 2.69409L12.8991 3.08428C13.0725 3.12764 13.2026 3.19267 13.311 3.23602L13.3543 3.2577C15.3053 3.97305 17.1261 6.14077 16.5192 9.47906C16.3674 10.3245 15.9339 11.0832 15.3486 11.7768C15.1318 12.037 14.9151 12.2537 14.6766 12.4922C14.2864 12.8607 13.9829 12.7957 13.9829 12.7957C13.9829 12.7957 14.85 13.7061 15.0668 13.7928C15.2619 13.8795 16.3024 14.053 16.3024 14.053L16.3674 13.9879C16.4108 13.9446 16.9961 13.4026 17.0611 13.3159C17.3863 12.9474 17.6898 12.5139 17.9932 12.0586C17.9932 12.0586 18.4485 11.4083 18.7303 10.5629C19.0771 9.41403 19.1205 8.3952 18.9904 7.39805Z" fill="url(#paint3_linear_2213_2)"/>
<path d="M16.3675 13.9662C16.3458 13.9662 16.3241 13.9445 16.3025 13.9445C14.5249 12.4705 11.5552 11.1265 10.8398 10.823C8.00009 9.60908 4.55341 8.28677 4.03316 8.04832C3.38284 7.74484 3.4262 7.02949 3.4262 7.02949L3.44788 3.23597C3.44788 3.10591 3.51291 3.0192 3.59962 2.93249C3.64297 2.88914 3.708 2.86746 3.75136 2.84578C3.77304 2.84578 3.79471 2.84578 3.81639 2.84578H4.01148H11.165C11.165 2.84578 11.2734 2.84578 11.4684 2.84578C13.4194 2.91082 18.1017 3.53946 19.0121 7.72316C19.0771 7.57142 18.5352 1.5018 12.4439 0.179487C12.4006 0.179487 11.7502 0.0277469 11.295 0.0277469C9.86433 0.0277469 6.78617 -0.0156076 4.57509 0.00606961C3.55626 0.00606961 2.71085 0.0277466 2.32066 0.0494238C-0.128865 0.0927782 0.00119868 2.00037 0.00119868 2.00037C0.00119868 2.00037 0.0228759 7.15955 0.00119868 7.50639C0.0445531 8.48186 0.369712 9.21889 0.84661 9.78249C1.32351 10.3244 2.12557 10.7796 2.7542 11.0831L10.0811 13.9228C10.1028 13.9445 10.4496 14.0746 10.4496 14.0746C12.1621 14.8766 15.9556 16.8709 15.9773 20.5127C15.999 23.8293 13.0509 27.0376 4.57509 28.1648C4.6618 28.1648 11.3167 28.1864 11.3167 28.1864C11.3167 28.1864 16.8444 28.0997 18.7303 22.9406C19.1422 21.9868 20.4211 16.936 16.3675 13.9662Z" fill="url(#paint4_linear_2213_2)"/>
<path opacity="0.4" d="M18.8606 10.2161C18.8606 10.1944 18.8823 10.1728 18.8823 10.1511C19.099 9.34902 19.1424 8.56864 19.0557 7.70155V7.72323C18.2536 3.99475 14.4601 3.10598 12.249 2.91089L12.921 3.08431C13.0944 3.12766 13.2245 3.19269 13.3329 3.23605L13.3762 3.25772C14.6552 3.73462 15.674 4.77513 16.216 6.05409C17.1264 6.83447 18.1235 8.17845 18.7522 10.5196C18.7739 10.4329 18.7955 10.3679 18.8172 10.2811L18.8606 10.2161Z" fill="url(#paint5_linear_2213_2)"/>
<path opacity="0.4" d="M13.333 15.7871C12.5743 15.2018 11.7939 14.7466 11.1436 14.3998C10.9268 14.5082 10.6884 14.5949 10.4499 14.6816C10.0381 14.8333 9.40944 15.0501 8.69409 15.2885C9.10596 15.8955 9.64789 16.6976 10.0381 17.2612C12.0324 16.3941 13.333 15.7871 13.333 15.7871Z" fill="url(#paint6_linear_2213_2)"/>
<path opacity="0.4" d="M15.3486 11.7552C15.1319 12.0153 14.9151 12.2321 14.6766 12.4705C14.5899 12.5572 14.5032 12.6223 14.4165 12.6656C15.0885 13.0775 15.7388 13.511 16.3024 13.9663C16.3241 13.9663 16.3458 13.9879 16.3675 13.9879C16.4108 13.9446 16.4542 13.9012 16.4975 13.8795C16.5192 13.8579 16.5409 13.8362 16.5625 13.8145L16.6059 13.7712C16.7143 13.6844 16.801 13.5977 16.866 13.5327C16.9311 13.4677 16.9744 13.4026 17.0394 13.3376C17.2779 13.0775 17.5163 12.7523 17.7331 12.4272C17.2129 11.9286 16.4542 11.4734 15.8038 11.1049C15.6738 11.3 15.522 11.5384 15.3486 11.7552Z" fill="url(#paint7_linear_2213_2)"/>
<path opacity="0.4" d="M4.61841 28.1647C9.14895 27.5578 12.097 26.3655 13.8529 24.8915C12.097 25.3901 11.23 25.3033 9.36572 25.3033H8.78043C6.526 26.3222 3.5779 27.5578 1.62695 28.0347C1.90876 28.1214 2.25559 28.1647 2.66746 28.1864" fill="url(#paint8_linear_2213_2)"/>
<path d="M24.7131 12.7958H22.1118V27.7747H24.7131V12.7958Z" fill="white"/>
<path d="M37.4812 14.9418V12.7958H26.9027V15.2236H34.1429L26.6426 25.672V27.7747H37.9364V25.3469H30.0676L37.4812 14.9418Z" fill="white"/>
<path d="M45.7185 24.0896L40.9928 12.7958H38.1748L44.5045 27.7747H47.0191L53.3489 12.7958H50.5308L45.7185 24.0896Z" fill="white"/>
<path d="M62.0844 12.4272C59.96 12.4272 58.0958 13.2076 56.5784 14.7684C55.0826 16.3075 54.3022 18.1717 54.3022 20.2961C54.3022 22.4421 55.0609 24.2847 56.5784 25.8021C58.0958 27.3412 59.96 28.1216 62.106 28.1216C63.7535 28.1216 65.2709 27.623 66.6149 26.6692C67.9589 25.6937 68.9127 24.4147 69.4763 22.8757L69.6714 22.3554H66.8967L66.81 22.6155C66.4632 23.5477 65.8345 24.328 64.9458 24.8916C64.0787 25.4336 63.1249 25.7154 62.0844 25.7154C60.7837 25.7154 59.6348 25.2602 58.5943 24.3064C57.6622 23.4609 57.142 22.4855 56.9902 21.3799H69.8665L69.9098 20.4695C69.9098 18.3018 69.1511 16.4159 67.6337 14.8551C66.1163 13.2293 64.2521 12.4272 62.0844 12.4272ZM67.1785 18.9087H57.0553C57.3154 17.8032 57.879 16.8711 58.7027 16.134C59.6782 15.267 60.7837 14.8551 62.106 14.8551C63.4284 14.8551 64.5339 15.267 65.5094 16.134C66.3331 16.8711 66.8967 17.8032 67.1785 18.9087Z" fill="white"/>
<path d="M76.3483 13.0342C75.9364 13.251 75.5896 13.5545 75.2861 13.9013V12.7741H72.6848V27.7531H75.2861V19.0605C75.2861 16.611 76.5 15.332 78.9712 15.1152L79.3397 15.0936V12.3839L78.9062 12.4056C77.8223 12.4923 76.9769 12.7091 76.3483 13.0342Z" fill="white"/>
<path d="M87.5123 19.4289C87.1871 19.2338 86.7535 19.0387 86.2333 18.8436L85.041 18.3884C84.6075 18.2367 84.2824 18.0633 84.0439 17.9332C83.4803 17.5864 83.1985 17.1311 83.1985 16.5675C83.1985 15.3753 83.7404 14.8334 84.9543 14.8334C86.0816 14.8334 86.6018 15.397 86.6885 16.6976L86.7102 17.0661H89.3115V16.6759C89.3115 15.4837 88.8996 14.4649 88.0759 13.6411C87.2521 12.8174 86.2333 12.4055 85.041 12.4055C83.7838 12.4055 82.6999 12.8174 81.8762 13.6194C81.0308 14.4215 80.5972 15.4837 80.5972 16.741C80.5972 17.9115 80.9874 18.8653 81.7461 19.559C82.0496 19.8408 82.4398 20.1009 82.895 20.3394C83.2202 20.4911 83.632 20.6862 84.1523 20.8813L85.3445 21.3365C85.7564 21.5099 86.0816 21.6834 86.3417 21.8568C86.927 22.2687 87.2088 22.8106 87.2088 23.5043C87.2088 25 86.5151 25.6503 84.9543 25.6503C84.0439 25.6503 82.8517 25.3902 82.8083 23.1357V22.7455H80.207V23.3092C80.207 24.6748 80.6623 25.8237 81.551 26.7342C82.4398 27.6446 83.5887 28.0998 84.9543 28.0998C88.1409 28.0998 89.81 26.474 89.81 23.3742C89.81 22.0952 89.4198 21.0547 88.6611 20.2743C88.3577 19.9709 87.9675 19.6891 87.5123 19.4289Z" fill="white"/>
<path d="M107 20.4261C107 18.2584 106.241 16.3725 104.724 14.8117C103.206 13.2293 101.32 12.4272 99.1745 12.4272C97.0501 12.4272 95.1858 13.2076 93.6684 14.7684C92.1727 16.3075 91.3923 18.1717 91.3923 20.2961C91.3923 22.4421 92.151 24.2847 93.6684 25.8021C95.1858 27.3412 97.0501 28.1216 99.1961 28.1216C100.844 28.1216 102.361 27.623 103.705 26.6692C105.049 25.7154 106.003 24.4147 106.566 22.8757L106.761 22.3554H103.987L103.9 22.6155C103.553 23.5477 102.925 24.328 102.036 24.8916C101.169 25.4336 100.215 25.7154 99.1745 25.7154C97.8738 25.7154 96.7249 25.2602 95.6844 24.3064C94.7523 23.4609 94.232 22.4855 94.0803 21.3799H106.957L107 20.4261ZM104.247 18.9087H94.1237C94.3838 17.8032 94.9474 16.8711 95.7711 16.134C96.7466 15.267 97.8521 14.8551 99.1745 14.8551C100.497 14.8551 101.602 15.267 102.578 16.134C103.423 16.8711 103.965 17.8032 104.247 18.9087Z" fill="white"/>
<path d="M23.4122 8.35181C22.5885 8.35181 21.9165 9.0238 21.9165 9.84753C21.9165 10.6713 22.5885 11.3433 23.4122 11.3433C24.236 11.3433 24.908 10.6713 24.908 9.84753C24.908 9.0238 24.236 8.35181 23.4122 8.35181Z" fill="white"/>
<path d="M112.78 23.9375C112.897 25.875 114.553 27.1797 116.913 27.1797C119.405 27.1797 120.998 25.8828 120.998 23.9062C120.998 22.3359 120.045 21.4688 117.78 20.8984L116.561 20.5859C114.905 20.1641 114.202 19.5938 114.202 18.625C114.202 17.3828 115.358 16.5156 116.92 16.5156C118.522 16.5156 119.647 17.3594 119.748 18.6328H120.819C120.756 16.8438 119.147 15.5469 116.952 15.5469C114.733 15.5469 113.092 16.8438 113.092 18.6641C113.092 20.1484 114.022 21.0312 116.108 21.5625L117.506 21.9219C119.178 22.3438 119.905 22.9688 119.905 24.0234C119.905 25.2891 118.694 26.2109 117.006 26.2109C115.241 26.2109 113.967 25.2891 113.85 23.9375H112.78ZM128.185 15.5469C125.044 15.5469 123.068 17.7969 123.068 21.3672C123.068 24.9375 125.044 27.1797 128.185 27.1797C131.333 27.1797 133.31 24.9375 133.31 21.3672C133.31 17.7969 131.326 15.5469 128.185 15.5469ZM128.185 16.5391C130.654 16.5391 132.216 18.4062 132.216 21.3672C132.216 24.3203 130.654 26.1875 128.185 26.1875C125.716 26.1875 124.162 24.3203 124.162 21.3672C124.162 18.4062 125.716 16.5391 128.185 16.5391ZM140.504 27.1797C142.95 27.1797 144.676 25.8594 145.075 23.6641H144.004C143.668 25.2266 142.309 26.1875 140.512 26.1875C138.114 26.1875 136.575 24.3047 136.575 21.3359C136.575 18.4062 138.114 16.5391 140.504 16.5391C142.254 16.5391 143.692 17.6797 144.004 19.3047H145.075C144.77 17.1016 142.887 15.5469 140.504 15.5469C137.442 15.5469 135.481 17.8047 135.481 21.3359C135.481 24.9062 137.434 27.1797 140.504 27.1797ZM148.675 27V15.7266H147.613V27H148.675ZM159.237 27H160.362L156.151 15.7266H155.088L150.87 27H152.003L153.253 23.5469H157.987L159.237 27ZM155.596 17.0469H155.643L157.667 22.625H153.573L155.596 17.0469ZM169.275 26.0312H163.627V15.7266H162.564V27H169.275V26.0312Z" fill="white"/>
<defs>
<linearGradient id="paint0_linear_2213_2" x1="14.5766" y1="-25.0626" x2="11.6112" y2="18.6374" gradientUnits="userSpaceOnUse">
<stop stop-color="#EB1B62"/>
<stop offset="0.2862" stop-color="#A8268A"/>
<stop offset="0.5339" stop-color="#77459B"/>
<stop offset="0.7694" stop-color="#4B5EAA"/>
<stop offset="1" stop-color="#238FCF"/>
</linearGradient>
<linearGradient id="paint1_linear_2213_2" x1="10.8257" y1="-3.92608" x2="18.4791" y2="24.1365" gradientUnits="userSpaceOnUse">
<stop stop-color="#EB1B62"/>
<stop offset="0.2862" stop-color="#A8268A"/>
<stop offset="0.5339" stop-color="#77459B"/>
<stop offset="0.7694" stop-color="#4B5EAA"/>
<stop offset="1" stop-color="#238FCF"/>
</linearGradient>
<linearGradient id="paint2_linear_2213_2" x1="5.24699" y1="-3.716" x2="7.19638" y2="29.3021" gradientUnits="userSpaceOnUse">
<stop stop-color="#EB1B62"/>
<stop offset="0.1322" stop-color="#A8268A"/>
<stop offset="0.2743" stop-color="#77459B"/>
<stop offset="0.7694" stop-color="#238FCF"/>
<stop offset="1" stop-color="#1B364E"/>
</linearGradient>
<linearGradient id="paint3_linear_2213_2" x1="16.5476" y1="0.596452" x2="11.6219" y2="19.9711" gradientUnits="userSpaceOnUse">
<stop stop-color="#EB1B62"/>
<stop offset="0.2862" stop-color="#A8268A"/>
<stop offset="0.5339" stop-color="#77459B"/>
<stop offset="0.7694" stop-color="#238FCF"/>
<stop offset="1" stop-color="#1B364E"/>
</linearGradient>
<linearGradient id="paint4_linear_2213_2" x1="3.53244" y1="-7.92935" x2="15.6062" y2="29.2353" gradientUnits="userSpaceOnUse">
<stop stop-color="#EB1B62"/>
<stop offset="0.2862" stop-color="#A8268A"/>
<stop offset="0.5339" stop-color="#77459B"/>
<stop offset="0.7694" stop-color="#238FCF"/>
<stop offset="1" stop-color="#1B364E"/>
</linearGradient>
<linearGradient id="paint5_linear_2213_2" x1="16.8498" y1="4.14612" x2="15.7821" y2="6.18135" gradientUnits="userSpaceOnUse">
<stop stop-color="#010101"/>
<stop offset="1" stop-color="#010101" stop-opacity="0"/>
</linearGradient>
<linearGradient id="paint6_linear_2213_2" x1="12.5958" y1="14.4233" x2="9.86184" y2="16.3546" gradientUnits="userSpaceOnUse">
<stop stop-color="#010101"/>
<stop offset="1" stop-color="#010101" stop-opacity="0"/>
</linearGradient>
<linearGradient id="paint7_linear_2213_2" x1="15.4205" y1="13.392" x2="16.5709" y2="11.913" gradientUnits="userSpaceOnUse">
<stop stop-color="#010101"/>
<stop offset="1" stop-color="#010101" stop-opacity="0"/>
</linearGradient>
<linearGradient id="paint8_linear_2213_2" x1="8.48601" y1="28.6606" x2="7.61227" y2="26.0774" gradientUnits="userSpaceOnUse">
<stop stop-color="#010101"/>
<stop offset="1" stop-color="#010101" stop-opacity="0"/>
</linearGradient>
</defs>
</svg>
